<mxfile host="app.diagrams.net" modified="2024-02-05T15:50:19.795Z" agent="Mozilla/5.0 (Windows NT 10.0; Win64; x64) AppleWebKit/537.36 (KHTML, like Gecko) Chrome/121.0.0.0 Safari/537.36" version="22.1.16" etag="0QHpb9rvt9xzMz-TptaN" type="github">
  <diagram name="Page-1" id="-FusPl95Oj1e-30-CDxw">
    <mxGraphModel>
      <root>
        <mxCell id="0" />
        <mxCell id="1" parent="0" />
      </root>
    </mxGraphModel>
  </diagram>
</mxfile>
